<?xml version="1.0" encoding="UTF-8" standalone="no"?>

<svg version="1.1" id="svg1" width="600" height="600" viewBox="0 0 600 600"
     xmlns="http://www.w3.org/2000/svg"
     xmlns:svg="http://www.w3.org/2000/svg">
   <defs id="defs1" />
   <g id="g1" transform="translate(-47.854649,-42.460094)">
      <path style="fill:#000000" d="m 47.854647,558.46009 v -84 h 84.000003 84 v 84 84 h -84 -84.000003 z m 144.000003,0 v -60 h -60 -60.000003 v 60 60 h 60.000003 60 z m -96.000003,0 v -36 h 36.000003 36 v 36 36 h -36 -36.000003 z m 168.000003,72 v -12 h -12 -12 v -24 -24 h 12 12 v -24 -24 h 12 12 v -12 -12 h -12 -12 v -12 -12 h -12 -12 v -24 -24 h -12 -12 v 12 12 h -12 -12 v -12 -12 h 12 12 v -12 -12 h -24 -24 v -12 -12 h -12 -12 v -12 -12 h -12 -12 v 24 24 h 12 12 v 12 12 h 12 12 v 12 12 h -60 -60.000003 v -12 -12 h 24 24 v -12 -12 h -24 -24 v -12 -12 h 12 12 v -12 -12 h 24 24.000003 v -24 -24 h -24.000003 -24 v 12 12 h -12 -12 v -24 -24 h 12 12 v -24 -24 h 24 24.000003 v 12 12 h -12 -12.000003 v 12 12 h 12.000003 12 v 12 12 h 12 12 v 12 12 h 36 36 v -12 -12 h -12 -12 v -12 -12 h -24 -24 v -12 -12 h 24 24 v -12 -12 h 12 12 v 12 12 h -12 -12 v 12 12 h 12 12 v 12 12 h 12 12 v -12 -12 h 12 12 v 12 12 h 12 12 v -24 -24 h -12 -12 v -12 -12 h -12 -12 v -36 -36 h 12 12 v -12 -12 h -12 -12 v -12 -12 h 12 12 v 12 12 h 12 12 v -12 -12 h 12 12 v -12 -11.999997 h -24 -24 v -12 -12 h 24 24 v -12 -12 h 24 24 v 12 12 h 12 12 v -12 -12 h 36 36 v 36 35.999997 h -12 -12 v -23.999997 -24 h -12 -12 v 47.999997 48 h -36 -36 v 12 12 h 12 12 v 12 12 h -12 -12 v -12 -12 h -12 -12 v 12 12 h -12 -12 v -12 -12 h -12 -12 v 24 24 h 24 24 v 24 24 h 24 24 v -24 -24 h 12 12 v -24 -24 h 12 12 v 12 12 h 12 12 v -24 -24 h 12 12 v 24 24 h -12 -12 v 12 12 h 12 12 v 60 60 h 12 12 v -12 -12 h 12 12 v -12 -12 h -12 -12 v -36 -36 h 24 24 v 36 36 h 24 24 v 24 24 h 12 12 v -36 -36 h -24 -24 v -24 -24 h 12 12 v 12 12 h 36 36 v 12 12 h -12 -12 v 12 12 h 12 12 v 12 12 h -12 -12 v 12 12 h 12 12 v 12 12 h -12 -12 v 12 12 h 12 12 v 12 12 h -24 -24 v -24 -24 h -12 -12 v -12 -12 h -12 -12 v -12 -12 h -12 -12 v 24 24 h 12 12 v 12 12 h 12 12 v 36 36 h 12 12 v 12 12 h 12 12 v 12 12 h 12 12 v 12 12 h -12 -12 v 12 12 h 12 12 v 12 12 h -24 -24 v -48 -48 h -12 -12 v 12 12 h -12 -12 v 24 24 h 12 12 v 36 36 h -12 -12 v -24 -24 h -12 -12 v -24 -24 h -24 -24 v 24 24 h 12 12 v 24 24 h -12 -12 v -24 -24 h -12 -12 v 24 24 h -12 -12 v -36 -36 h -12 -12 v -12 -12 h -12 -12 v 24 24 h 12 12 v 12 12 h -12 -12 v 12 12 h -24 -24 v -12 -12 h 12 12 v -24 -24 h -24 -24 v 12 12 h -12 -12 v -12 -12 h -12 -12 v 24 24 h 12 12 v 12 12 h -12 -12 z m 192,-72 v -12 h -12 -12 v 12 12 h 12 12 z m -72,-24 v -12 h -24 -24 v -12 -12 h 12 12 v -36 -36 h 12 12 v 24 24 h 12 12 v 12 12 h 12 12 v -12 -12 h -12 -12 v -60 -60 h 12 12 v 12 12 h 12 12 v -12 -12 h -12 -12 v -12 -12 h -12 -12 v -24 -24 h -24 -24 v 12 12 h -12 -12 v 24 24 h -24 -24 v 24 24 h -12 -12 v -24 -24 h -36 -36 v 12 12 h 24 24 v 12 12 h 12 12 v 12 12 h 24 24 v -24 -24 h 36 36 v 12 12 h -24 -24 v 24 24 h -36 -36 v 12 12 h 12 12 v 12 12 h 12 12 v 12 12 h -12 -12 v 12 12 h 48 48 z m -72,-48 v -12 h 12 12 v 12 12 h -12 -12 z m 48,-156 v -24 h 12 12 v 24 24 h -12 -12 z m 168,156 v -36 h -36 -36 v 36 36 h 36 36 z m -48,0 v -12 h 12 12 v 12 12 h -12 -12 z m 96,0 v -12 h -12 -12 v 12 12 h 12 12 z m -96,-72 v -12 h -24 -24 v 12 12 h 24 24 z m 72,0 v -12 h -12 -12 v -12 -12 h -12 -12 v 24 24 h 24 24 z m -288,-96 v -12 h -12 -12 v 12 12 h 12 12 z m 48,0 v -12 h -12 -12 v 12 12 h 12 12 z m 0,-144 v -12 h 12 12 v -24 -24 h 12 12 v 12 12 h 12 12 v -24 -23.999997 h -24 -24 v 11.999997 12 h -12 -12 v 12 12 h -12 -12 v 24 24 h 12 12 z m 312,456 v -12 h 12 12 v 12 12 h -12 -12 z m 0,-168 v -12 h 12 12 v 12 12 h -12 -12 z m -576.000003,-336 V 42.460093 h 84.000003 84 v 83.999997 84 h -84 -84.000003 z m 144.000003,0 V 66.460093 h -60 -60.000003 v 59.999997 60 h 60.000003 60 z m -96.000003,0 V 90.460093 h 36.000003 36 v 35.999997 36 h -36 -36.000003 z m 384.000003,0 V 42.460093 h 84 84 v 83.999997 84 h -84 -84 z m 144,0 V 66.460093 h -60 -60 v 59.999997 60 h 60 60 z m -96,0 V 90.460093 h 36 36 v 35.999997 36 h -36 -36 z" id="path1" />
   </g>
</svg>
