<?xml version="1.0" encoding="UTF-8" standalone="no"?>
<svg version="1.1" viewBox="0 0 946.14 724.4" xml:space="preserve" id="svg3"
  xmlns="http://www.w3.org/2000/svg"
  xmlns:svg="http://www.w3.org/2000/svg"
  xmlns:rdf="http://www.w3.org/1999/02/22-rdf-syntax-ns#"
  xmlns:cc="http://creativecommons.org/ns#"
  xmlns:dc="http://purl.org/dc/elements/1.1/">
  <defs id="defs3">
    <rect x="254.15246" y="233.55776" width="93.356433" height="24.765581" id="rect6" />
    <rect x="252.65622" y="231.2475" width="100.13218" height="33.297283" id="rect4" />



  </defs>
  <metadata id="metadata1">
    <rdf:RDF>
      <cc:Work rdf:about="">
        <dc:format>image/svg+xml</dc:format>
        <dc:type rdf:resource="http://purl.org/dc/dcmitype/StillImage" />
      </cc:Work>
    </rdf:RDF>
  </metadata>
  <style id="style1">
        path {
            stroke: #008080;
            stroke-width: 2px;
        }
  </style>

  <path d="m 769.05,144.85 c -7.67087,1.37965 -15.21544,8.61083 -25.15451,7.9104 -9.51326,-1.26822 -15.62009,2.22802 -23.29676,-1.22412 -8.49386,0.24692 -13.88333,-10.26241 -10.98261,-14.19796 1.25409,-4.89084 8.9214,-14.80663 3.15246,-16.6522 -4.55806,4.68859 -12.99028,4.48276 -17.07807,3.30668 -4.80703,-1.06909 0.94576,6.29597 -7.47722,2.59897 -0.30402,4.53242 -11.97992,7.85404 -10.76108,13.5256 2.62763,4.34694 0.20896,10.24 5.17375,14.05471 12.89392,-0.0979 1.3546,5.37199 3.41984,7.27146 2.36534,7.2407 -0.31568,14.79378 -3.2637,20.70707 -6.47519,2.84508 -2.44239,10.12509 -11.26569,11.04326 2.90162,-0.42311 4.24841,-10.59581 7.98251,-11.35575 -0.38185,-5.09139 6.7304,-11.57688 0.86917,-14.86913 -2.12877,-6.96459 -0.17489,-10.94772 -5.7422,-16.25382 2.72385,-7.85193 -5.59896,-4.81601 -4.41315,-9.11446 0.78271,-4.52823 -8.05394,-0.20512 -10.97373,-0.91062 -2.31058,-4.79738 -7.50046,2.89463 -8.36932,2.49022 -5.66591,0.39892 -3.87839,9.68308 -9.73632,8.39848 -0.96783,-12.66709 -0.73838,3.9495 -6.5801,5.28316 1.48707,-5.08054 -4.38774,-11.04658 -5.81754,-16.38502 -1.06439,-9.08607 -2.79993,-7.20042 -10.79912,-1.65519 -2.30088,10.43059 -12.78145,0.46472 -4.17986,-2.90124 8.23873,-8.30904 5.67985,-11.55255 0.23483,-15.43597 -1.98723,7.49712 -12.11059,7.17591 -15.96554,12.02369 -6.7835,4.18217 -3.47429,-0.36345 -9.36331,-3.4043 -12.33489,1.53151 -4.76149,1.71595 -8.06828,9.82804 -4.7231,7.34704 -15.97442,3.55495 -18.90615,10.5996 -3.13745,5.92077 -13.97426,9.79801 -15.01564,17.0293 -8.5847,0.32771 -10.51608,-5.52214 -10.87896,7.1934 2.73861,14.07589 -11.80304,-14.81001 -8.01826,-7.98 -7.09747,0.5129 7.91409,-13.67626 -5.4758,-11.44782 -6.18512,-4.3064 -7.42114,-9.94992 -15.36139,-12.19716 2.64675,-6.53097 1.82512,-17.52638 -3.5723,-22.87692 -2.4085,-4.15363 -9.3502,-2.62313 -7.92486,-10.3975 -7.24933,-2.5817 -13.14522,-9.054204 -10.16514,-15.14162 4.39507,-9.352607 -4.99689,-5.787 -12.44124,-8.05671 -3.56367,-5.43746 -12.37361,-6.400919 -3.22226,-10.88363 5.2617,0.735508 3.91812,-10.926307 -3.87737,-6.32154 -6.26462,-2.555366 -9.8218,6.885387 -9.77359,-5.68563 4.16181,-8.031832 -0.38066,-15.046894 -9.72274,-7.64273 -7.46278,1.943983 -10.62469,6.121568 -14.08517,14.037803 -12.05759,10.160678 8.05507,-8.405032 -2.69607,-8.947853 7.06875,-15.566105 -6.52684,-6.827368 -10.39258,-0.35748 -3.6791,-2.271269 -11.45426,-0.803063 -18.99398,2.642039 -5.34798,1.761262 -7.83745,8.8776 -17.54126,6.219401 5.29846,-9.779289 -2.90198,-2.601224 -5.99193,-10.915577 -0.27907,-3.632988 -5.89368,6.158123 -7.06546,-0.969676 2.21734,-0.137689 -10.83825,3.574174 -5.94621,6.830551 -1.47903,6.113824 -11.0846,5.137173 -9.64261,8.486242 -6.03588,8.17678 6.86655,5.05402 5.93548,14.17975 4.99158,-0.730225 22.19433,0.990282 8.8751,1.96094 -4.89412,2.42332 -10.74589,-1.74032 -15.31935,2.06859 -3.62541,3.947545 1.80133,10.73406 -0.59665,15.10905 -8.15457,5.74279 -10.18948,-6.377769 -14.36535,-1.14643 1.59712,-10.009075 -11.47374,0.8472 -12.3476,-6.95707 -4.01401,-6.755218 -13.35375,-0.60885 -17.64268,-4.58418 -6.75806,-2.772783 -5.90528,-0.898789 -11.8145,2.77737 0.41308,13.26122 -3.34754,5.35341 -2.20706,12.59755 4.00419,8.74328 5.93958,10.36371 -1.05075,10.27154 3.13622,-3.60224 -11.95956,-8.44143 -8.03113,-13.77153 3.93077,-8.57259 -12.15238,1.42906 -11.04295,1.07613 3.09036,-6.095062 -4.45707,-5.72667 -3.13769,-13.367209 4.38261,-8.24976 -1.14986,-13.609134 -5.23333,-5.791001 0.0638,-8.638699 -6.89089,4.063072 -11.55678,1.97079 -2.73553,10.161832 -7.63427,2.20135 -14.11314,2.466376 -5.43742,-0.48914 -13.29546,0.440375 -17.02177,3.193794 -10.69303,1.994069 1.93542,13.16148 -6.3028,7.13861 -8.55796,-0.14865 -14.61453,5.54885 -18.82023,4.29491 3.00621,-4.04822 7.39474,-9.707375 -0.44735,-10.9297 -0.97699,-1.393484 -8.65069,-4.151982 -12.39267,1.17592 -12.54216,1.786232 -9.72499,5.34765 -11.54046,6.60552 -2.80223,-0.97854 -11.99705,8.04433 -17.38146,2.74617 -3.69629,-6.491056 -7.70712,-0.57293 -13.28126,1.31125 -2.9686,4.20617 8.72888,7.79598 4.72851,6.58711 -7.82101,4.84623 -13.11524,-9.58521 -13.875,3.12099 1.77974,6.23027 -12.76669,-0.0606 -14.97842,4.24809 -5.95379,-5.82549 -5.08809,7.17756 -10.02539,2.38083 -7.52223,3.33274 -6.35079,11.21774 -11.66206,10.5683 -2.866078,3.54077 3.25649,14.45949 -1.04096,18.63088 -1.574531,4.91871 -4.99151,8.74776 -6.05277,14.38097 3.252277,4.45703 4.413891,9.7881 5.79887,14.03528 -8.379472,-0.33892 -3.386372,4.04326 -3.72845,11.73633 3.981048,4.1859 18.16066,4.28171 17.27696,-3.77549 9.09821,-1.43253 14.04688,11.54072 23.12098,4.18971 7.64693,-4.38294 10.52849,-1.63125 18.94372,-8.38498 2.7942,-2.14507 10.2118,0.40801 16.4111,-5.37323 11.09994,1.86034 3.73795,5.6748 -2.29949,9.59817 -0.96243,6.61179 -10.2745,11.84642 -3.01735,12.94875 12.61002,-7.48695 0.25626,3.5602 12.9188,1.43575 7.03153,-9.39222 4.71419,-5.99337 10.54765,-7.21485 3.31474,-8.23838 -1.31321,10.89319 6.6263,0.92202 8.01953,-1.16428 -3.51579,3.44773 -3.42515,5.74928 -10.17013,2.68966 0.23217,8.34106 6.66745,3.9488 15.76776,-3.3206 -6.48218,-0.26484 3.15005,4.04375 2.58196,2.23704 14.3244,3.52907 3.9513,5.2538 -4.70469,5.92703 -6.32027,-8.11096 -15.6638,-2.65995 -7.17714,1.73911 -11.36763,5.73341 -19.21433,3.89755 0.72755,-6.8683 -8.49406,-6.32967 -14.10167,-4.96483 -7.40941,3.36594 -9.59823,-3.24238 -4.15155,-6.99272 -5.48616,-1.41339 -7.46113,9.7074 -10.1575,4.6088 -3.63964,-4.07675 2.52026,-9.35338 3.71515,-14.45214 -4.24029,-2.3686 -13.02017,2.99809 -10.27035,9.0279 4.56139,10.257 -6.0788,8.00251 -9.25566,7.91662 -4.40033,-1.43571 -3.41222,9.99087 3.11101,9.74507 2.78616,-0.77066 16.34203,-0.4892 7.53895,3.99225 -7.56159,0.65686 7.20443,16.13448 -2.8199,19.4847 3.75444,9.09946 8.7161,-3.09534 11.1675,-5.48365 5.05571,-5.31887 4.7969,-14.32272 14.91547,-9.61207 10.29069,2.92204 13.48125,8.68118 21.25282,10.75925 6.41661,0.2353 10.95863,5.46971 9.91781,11.62262 -4.36139,3.25974 7.04639,6.07276 3.4637,11.98605 -4.82098,1.88602 -1.57029,10.34178 -8.1859,12.45135 -5.89927,-2.32431 -7.69588,-5.41071 -15.1587,-7.10625 -5.75758,0.2507 -11.39402,2.61859 -17.2413,1.90805 -5.78513,4.38314 -13.66792,-0.55569 -18.3961,4.16015 -4.65768,0.93604 -10.72618,-1.77959 -16.3693,2.76664 -4.54443,-3.46668 -10.24628,2.90641 -15.02561,0.0492 -6.853648,-2.24836 -3.416414,9.67012 -10.272892,8.40046 4.74623,3.71334 13.742512,6.34801 20.273952,5.53253 4.34204,4.01396 9.00687,5.01076 13.0589,9.9524 7.52128,-7.18617 8.23203,-2.27182 16.28815,1.02502 5.68823,6.00828 14.54304,10.19149 16.79165,19.39978 6.23834,4.63463 5.36163,13.0157 9.8149,15.8901 -1.727,2.25312 1.22269,11.97524 0.22159,18.07252 -2.08514,3.04104 -10.82461,3.1108 -6.31919,8.29883 -2.34318,9.37662 11.54544,1.44281 16.2055,5.26265 3.78629,3.73012 12.25315,3.97954 17.7662,1.6762 3.30341,1.48721 11.67722,-2.61671 12.7612,-9.86145 -9.39133,-1.9101 0.75325,-6.2403 7.1848,-9.27131 6.76679,2.6142 0.99346,-13.6817 -5.26937,-10.76083 -5.07795,2.47276 6.48201,-6.24925 4.18687,-5.61219 0.25289,7.32336 5.41826,9.34834 7.68745,17.24995 5.67828,-6.19479 5.2982,-1.14737 11.09375,5.46875 7.28682,-5.60562 17.06995,3.39481 12.50415,-10.9068 -1.65946,-5.40528 2.25669,-5.44333 7.99585,-2.81195 0.65798,11.3661 12.37423,3.9076 8.43496,7.12799 -3.09266,7.34138 2.81426,5.21219 0.98724,10.37457 1.13459,5.77129 12.0702,13.40944 9.34497,16.15099 6.6771,-1.83959 14.0593,3.88081 21.04234,1.03912 7.49977,-2.78963 -3.73802,-12.25258 1.03474,-15.63032 3.23375,-4.90579 -1.55012,17.98421 7.4374,10.56255 5.06541,-6.20391 5.34672,-3.31013 13.8438,-2.21875 -5.8884,-0.85719 -19.32796,2.05089 -13.06265,8.5001 6.59746,8.17376 10.2239,2.25421 16.56486,7.0887 4.89913,0.19165 10.12555,2.56903 18.81039,4.3803 7.75308,1.81119 6.48526,11.91319 11.51361,16.24246 2.62448,7.39608 6.36083,7.44926 12.81843,6.40431 11.07387,4.05581 7.00024,-10.03805 10.5801,-8.91699 9.24253,1.57334 -5.27073,-20.08581 3.64147,-11.0863 4.79123,10.61222 7.0465,2.26575 13.07734,-2.51803 0.48194,-7.54139 8.67718,1.87174 0.87512,3.71694 -3.19065,3.02815 -5.17985,13.50419 -11.291,10.63101 1.7962,3.05169 -8.0726,10.91642 1.36726,7.48445 4.15929,-2.15867 11.34982,1.38525 9.88088,7.39452 2.88791,1.71397 9.15916,12.09086 13.79103,12.85547 -0.33542,-8.66096 4.66712,-13.14917 6.91014,-17.53607 7.07371,3.68486 2.85516,-8.47842 0.40247,-10.72556 -3.3563,-4.57362 8.65896,4.67147 10.80849,-0.63103 -2.67769,8.09995 -8.62438,11.21494 2.79489,5.09178 4.65906,-2.34609 -1.17798,14.0053 -3.49425,8.25392 -3.98192,-4.40906 -5.80557,4.20109 -0.73977,2.60016 -4.76847,3.7204 -4.5793,6.20512 -9.73128,2.63847 0.0741,3.01586 -6.87435,5.45407 -4.79879,12.22265 -2.27442,8.61477 11.84933,10.24503 12.06634,19.35988 0.17507,12.52516 3.82333,8.49173 1.93175,1.08155 -2.64282,-12.9777 14.49486,7.6857 6.32021,3.33607 2.4241,4.81788 12.34091,2.77497 12.47659,-3.35736 5.95114,12.31627 3.05128,1.00282 4.57946,-6.81523 2.99087,10.06433 3.34816,13.12298 8.86812,10.58506 -0.46632,6.96335 13.71921,9.99725 7.02776,2.8877 -8.2877,-7.6896 2.23129,-12.77194 -3.6352,-19.86753 -4.41181,-8.2525 0.55663,-12.11903 2.54861,-2.36993 4.21409,3.18941 2.42245,5.78278 3.32622,13.8514 4.82394,-8.85433 3.42555,5.02676 4.31257,2.38877 -1.72394,-1.52009 9.74316,7.48044 5.92617,0.62757 0.39586,-6.15738 10.91086,-2.18511 3.68908,-9.78971 4.03742,-1.8328 9.55759,4.43709 13.66021,0.47077 5.62995,3.33593 9.58112,-2.24931 11.56037,-6.61916 0.76944,6.24396 8.14308,6.38064 3.24991,9.91734 -14.09541,-6.25108 5.60243,5.44157 4.89987,5.52442 -0.72636,4.07374 -0.46203,10.5587 -3.31983,15.63998 -0.95415,4.24451 -10.42307,4.06176 -10.42216,0.97482 -3.80689,-2.16695 -5.90743,3.59704 -7.72221,-3.56673 -1.19886,7.89057 -4.2283,0.61383 -9.51043,4.79885 -0.8452,-5.23084 -3.163,-4.34962 -6.11332,-6.58985 -2.43791,-3.10532 -8.1676,1.95528 -2.62892,4.12887 3.50617,0.3286 12.78841,8.23269 11.26184,14.81445 7.62931,7.18591 13.23932,0.75791 21.74217,0.38859 5.13471,-5.04802 15.66514,7.38289 15.42397,-3.74221 -6.69164,-8.12042 3.84471,-1.54724 7.26254,2.02794 6.04455,3.20683 9.96011,-6.00344 17.61431,0.99937 3.50609,-10.17863 12.30805,-0.18484 18.2657,0.66602 4.99707,7.70147 13.17845,0.93965 19.0412,4.03324 4.92726,-5.83513 18.50558,-0.21336 14.64246,-12.34758 6.03952,-6.11393 2.55617,17.82244 -7.41046,10.64003 -6.29733,5.13622 -12.05199,2.82633 -19.1524,4.1777 -11.24007,1.38582 -14.72066,-1.26949 -14.8084,8.73202 -1.19522,8.06682 16.4922,1.53113 10.52941,12.48542 8.26174,9.69584 -7.9156,-0.82015 -12.19993,6.76133 -9.40799,5.25125 -14.47208,7.1331 -4.4038,15.20758 4.74958,4.62535 3.12162,19.05713 -4.45188,16.63908 -4.28475,4.4946 13.1609,7.69436 17.37546,11.8232 7.7274,-0.84981 18.63286,-9.2492 26.02278,3.04685 7.02361,12.27237 18.46947,-1.39536 27.21382,-4.2751 8.12167,-10.20911 24.09498,-10.76801 35.8283,-9.18368 11.75313,3.79793 24.33348,3.53623 35.0917,9.72647 9.85247,10.06171 19.11389,23.80491 34.8029,22.88283 9.16827,7.86879 29.51671,1.80988 33.29107,5.32223 -11.36438,3.82432 -24.21137,3.50973 -34.57126,-2.41879 -19.88999,2.82102 -27.9838,-22.4682 -45.01288,-25.56345 -12.40055,-3.44598 -25.46346,-6.21113 -37.82474,-0.43356 -12.52558,-1.9483 -22.21943,9.94396 -12.09146,19.94836 0.4329,10.15633 -2.42825,17.82105 -14.01557,16.57218 -8.90937,7.86539 -0.42642,8.213 8.79682,10.67174 12.30796,4.97978 29.31973,5.00804 34.12272,19.93058 6.91086,6.69071 21.81157,1.15087 31.90965,2.96271 28.23022,0 56.46043,0 84.69065,0" fill="none" stroke="#181818" id="bretagne_contour" style="display:inline" />

  <path d="m 339.04375,393.76 c -6.07918,-2.11978 -13.29478,-2.80125 -18.30875,-4.3237 -7.15134,-3.83669 -8.49657,-0.73719 -14.99333,-4.83421 -5.55724,-5.72371 -8.35084,-12.21054 -9.44249,-9.2259 2.69193,9.1935 -13.45474,5.97396 -18.95724,4.24209 -9.92306,1.79393 -1.88747,-4.8378 -11.15799,-10.63598 -4.90503,-6.93778 -0.43153,-8.31035 -5.8463,-12.0063 6.20045,-5.40356 -1.19441,-1.25229 -3.49,-6.79 -4.29183,-6.20289 -8.05628,-6.12399 -11.3087,-5.1951 0.95006,4.69482 5.0108,16.46987 -3.42995,12.91625 -8.71616,2.45745 -9.74763,-1.78072 -15.6975,-4.16625 -0.5191,0.66032 -7.33668,-2.56778 -9.87005,-9.12125 -2.17249,-3.27355 -3.28829,-14.55832 -3.3975,-2.82325 -12.46288,-0.0817 4.04759,-1.41038 4.8875,5.21745 5.98305,9.87951 -9.25621,3.20039 -10.51875,12.4575 -7.97321,-1.88302 6.28872,6.16939 -3.20635,10.3312 -5.91984,4.70347 -8.22383,0.61316 -14.10245,3.8938 -8.48485,1.43208 -11.5843,-5.22503 -19.91375,-4.04625 -7.93347,2.90265 -8.60826,-2.79198 -9.6494,-6.425 1.89343,-5.36498 11.90727,-3.70453 7.01262,-13.96668 0.94285,-7.82709 -0.18552,-10.88139 -2.05262,-14.66827 -4.58673,-7.72279 -7.8748,-16.46414 -15.3675,-23.2313 -5.01685,-4.38633 -10.00401,-9.67474 -17.14426,-11.55907 -0.30444,-4.56914 -11.57813,8.0445 -12.77814,-2.39853 -5.95036,-2.80628 -9.45601,-5.02274 -15.79375,-5.66245 -6.719772,0.32952 -20.215432,-6.63775 -6.53375,-6.9525 -4.520066,-10.27325 5.76596,-3.0899 8.53,-5.88125 6.06911,-3.17721 11.8343,2.18898 18.6975,-3.7225 6.21926,2.77335 8.5833,-0.12798 13.63005,-1.5924 7.00577,1.50195 10.6891,-2.20397 17.89,-1.83885 5.60378,-0.62882 14.04482,-4.38311 18.21625,0.577 4.71697,1.24956 7.86124,6.9568 13.3775,1.3788 -0.074,-6.08322 6.02878,-9.1751 3.46345,-13.8436 -2.86322,-3.82822 -3.98231,-5.91312 -2.6944,-10.86092 -1.51615,-7.75697 -8.59791,-7.67602 -15.62695,-9.39783 -1.67061,-4.91802 -14.70546,-10.24675 -22.41878,-10.50249 -3.755,2.49674 -6.72876,9.09342 -9.49944,13.656 -3.92361,6.00844 -11.7595,7.99388 -6.62621,-0.3136 0.48904,-10.85655 -6.53269,-15.63796 2.81623,-19.77145 -4.79353,-3.6699 -9.84125,2.34558 -14.22955,-4.10941 -3.56128,3.16663 -3.78255,-14.17762 4.41474,-6.8888 6.98027,5.53288 7.00615,-7.37071 4.57526,-11.6237 1.28231,-4.62282 14.74635,-9.31017 9.16125,-1.60495 -2.38592,5.97349 -4.77351,10.33305 0.0762,12.80245 1.01413,-3.01531 9.80519,-10.25792 6.8112,-3.63 -7.076,5.45814 6.86729,5.97208 10.34484,3.05251 9.92936,-1.58784 5.75475,6.55123 14.08376,6.59234 6.67257,-0.29308 11.85317,-4.98217 19.75625,-4.8875 8.20574,1.07653 5.32353,8.33513 12.81375,2.53365 6.88524,-2.66455 -10.60707,-2.2315 -8.62775,-7.92983 12.30721,-5.55836 -1.94371,0.96141 -5.1699,0.8966 -17.35538,-0.49546 -1.74493,-4.86053 -2.6398,-6.40672 6.42604,-3.82932 7.96915,-7.93741 -0.65101,-2.546 -3.72194,-6.87292 3.29285,-4.55174 -6.61943,-1.62897 1.56507,-8.76318 -3.64239,9.62445 -11.03576,5.84172 1.22494,-8.74473 -8.30045,0.82896 -11.23115,-3.64232 4.2088,-2.6046 1.90775,-9.65414 9.07115,-11.99143 7.69262,-10.12568 23.59198,-8.66131 31.075,-19.43125 3.35445,2.06702 10.73813,2.12795 15.50879,6.66096 4.43292,7.70537 8.43583,17.93789 18.53611,17.78099 5.9617,-8.29647 8.78563,12.8186 20.82447,3.73012 10.3182,6.18929 12.57518,-6.76644 19.82379,-10.6504 7.35423,-1.46527 14.99239,-6.81275 21.80049,-6.59092 5.32733,-0.79469 14.44811,-7.19626 23.2449,-5.00125 6.88165,1.57038 12.16183,-9.9896 19.01489,-4.06088 5.44275,-1.23148 7.36215,1.40929 12.14949,5.82363 6.88137,6.74526 12.37699,0.26439 19.51372,0.584 8.29011,6.11663 15.45108,2.67665 24.40384,0.37833 5.72845,1.09126 20.066,1.18292 18.61241,9.40542 4.91798,0.96411 12.81012,9.46525 17.79125,6.7562 4.84853,0.047 12.91797,-0.78116 18.8825,0.0442 9.4242,-0.24019 9.00338,0.1352 13.455,-8.92625 3.44132,6.4924 9.33761,5.10031 14.8988,8.3203 -0.15342,3.75476 -1.64768,11.86032 1.33073,15.90563 -9.2349,5.37273 2.82683,11.64863 7.01807,15.16437 -3.92701,7.22562 -0.30821,9.77735 5.21304,17.94731 3.12848,6.71247 -2.20503,15.40711 3.30826,22.63394 -1.22534,4.62159 9.74691,17.03138 -1.68165,12.36768 -11.87669,-4.46593 -1.82034,9.00651 -10.35335,11.58607 -3.75025,1.78 -7.67567,8.71987 -10.7085,11.7249 -12.04741,2.78582 -11.62479,-8.22269 -14.77182,-10.65902 -0.14361,-4.7042 3.36611,-13.02996 0.86557,-15.52348 2.01245,-9.03685 -5.53366,-9.07281 -12.0984,-12.13845 -4.43896,6.16309 -8.96906,-4.60207 -15.7687,-2.6115 -4.13545,-6.75839 -10.84481,-2.65815 -17.03005,0.5765 -2.99275,6.15234 -13.51817,7.41203 -20.015,4.9037 -2.22961,7.17636 -12.70991,8.45562 -18.07545,10.45735 -4.82329,5.93274 -4.57189,14.16737 -11.2758,17.93395 -8.85257,5.27795 -4.33925,17.95153 -5.84538,24.98461 -6.00354,7.54315 -5.63334,12.67619 -1.39533,19.78373 4.60896,4.08942 3.93757,13.42595 -2.87737,12.97416 -3.55377,0.67078 -7.78751,6.55863 -7.44437,10.39 -0.40172,7.23831 -9.51708,9.57758 -6.0987,16.38255 4.71245,4.41152 -1.55739,10.88123 -1.4301,16.64995 z" fill="none" stroke="#181818" stroke-width=".8" id="cornouaille_contour" style="display:inline" />


  <path d="m 310.38,284.38 c -8.12229,0.64129 -16.40314,6.2541 -21.4062,10.4375 -3.73024,4.59662 -11.15691,10.0018 -18.53125,3.375 -3.82805,-1.7212 -18.62689,-2.71832 -14.75483,3.43429 0.34656,7.26642 -1.77511,20.53034 -12.05663,14.60125 -3.40353,2.91692 -7.56442,12.03796 -10.50089,15.12066 -7.12489,-0.70257 -12.24295,-4.29365 -17.50005,3.25 -2.94664,7.81902 3.81897,9.97339 5.875,16.18755 4.97092,4.15124 5.38831,-3.52989 10.71875,6.40615 2.08038,-0.67531 19.59127,4.32186 13.68745,-5.09375 -0.76254,-8.18925 0.40406,-9.45542 6.24995,-7.0312 6.08636,4.47337 5.1174,12.17359 13.1877,5.4687 -4.79668,8.17959 -4.94576,6.33716 -0.12505,12.0001 -7.86247,2.30093 12.56332,12.20703 6.5313,15.7812 3.69514,-0.15629 12.5337,3.56211 19.56265,2.2188 11.55167,1.4246 -0.91206,-11.80466 3.9377,-15.1877 2.59699,-6.88305 -1.67936,13.91417 5.34365,11.0313 7.2298,-6.04959 5.44673,-5.21835 14.4688,-3.65625 -0.98451,0.29576 -16.18729,0.90918 -13.42045,7.46417 5.01805,8.22953 11.74393,4.45061 14.608,7.66108 8.80477,2.16596 9.86099,1.24817 20.0938,5.09385 5.40821,-1.09804 5.15992,-11.72946 4.3125,-15.12505 -5.03925,-6.97507 5.84362,-11.07054 6.24995,-19.0625 -1.64355,-3.26403 5.6696,-10.96999 10.43755,-9.12495 4.86875,-6.46635 -1.81631,-11.43557 -2.59385,-17.24995 -8.51891,-7.61891 6.20405,-10.58566 3.3749,-18.7812 0.82747,-10.66326 1.75903,-17.50591 -10.25385,-20.25979 -7.72173,-1.32343 -7.57033,19.19444 -14.5273,1.97864 -5.99071,-4.55739 -12.08987,-6.94566 -20.09385,-8.87505 -0.45547,-1.29705 -1.83028,-1.48021 -2.87545,-2.06285 z" fill="none" stroke="#181818" id="aven_contour" style="display:inline" />


  <text x="288.11057" y="336.39182" fill="none" font-family="'Barlow Condensed'" font-size="14.667px" font-stretch="condensed" font-weight="500" letter-spacing="2px" stroke="#ffffff" stroke-width="0.55" style="font-style:normal;font-variant:normal;font-weight:500;font-stretch:condensed;font-size:21.3333px;font-family:'Barlow Condensed';-inkscape-font-specification:'Barlow Condensed, Medium Condensed';font-variant-ligatures:normal;font-variant-caps:normal;font-variant-numeric:normal;font-variant-east-asian:normal;display:inline" xml:space="preserve" id="aven_text">
    <tspan x="288.11057" y="336.39182" fill="#000000" font-family="'Barlow Condensed'" font-size="14.667px" font-stretch="condensed" font-weight="500" letter-spacing="2px" stroke="none" style="font-style:normal;font-variant:normal;font-weight:500;font-stretch:condensed;font-size:21.3333px;font-family:'Barlow Condensed';-inkscape-font-specification:'Barlow Condensed, Medium Condensed';font-variant-ligatures:normal;font-variant-caps:normal;font-variant-numeric:normal;font-variant-east-asian:normal" id="tspan1">Aven</tspan>
  </text>

  <text xml:space="preserve" style="font-style:normal;font-variant:normal;font-weight:500;font-stretch:condensed;font-size:21.33333333px;font-family:'Barlow Condensed';-inkscape-font-specification:'Barlow Condensed, Medium Condensed';font-variant-ligatures:normal;font-variant-caps:normal;font-variant-numeric:normal;font-variant-east-asian:normal;letter-spacing:2px;word-spacing:0px;fill:#000000;fill-opacity:1;stroke:none;stroke-opacity:1" x="498.42816" y="324.88303" id="bretagne_texte">
    <tspan id="tspan5" x="498.42816" y="324.88303">Bretagne</tspan>
  </text>
  
  <text xml:space="preserve" style="font-style:normal;font-variant:normal;font-weight:500;font-stretch:condensed;font-size:21.33333333px;font-family:'Barlow Condensed';-inkscape-font-specification:'Barlow Condensed, Medium Condensed';font-variant-ligatures:normal;font-variant-caps:normal;font-variant-numeric:normal;font-variant-east-asian:normal;letter-spacing:2px;word-spacing:0px;fill:#000000;fill-opacity:1;stroke:none;stroke-opacity:1" x="262.09109" y="241.09326" id="cornouaille_text">
    <tspan id="tspan6" x="262.09109" y="241.09326">Cornouaille</tspan>
  </text>
</svg>
